# xmcd CD database file
#
# Track frame offsets:
#	150
#	19027
#	38400
#	57267
#
# Disc length: 1020 seconds
#
# Revision: 4
# Processed by: cddbd v1.5.1PL2 Copyright (c) Steve Scherf et al.
# Submitted via: CDex 1.51
#
DISCID=2403fa04
DTITLE=ささきいさお - 銀河鉄道物語
DYEAR=2003
DGENRE=Anime
TTITLE0=銀河鉄道は遙かなり
TTITLE1=銀河の煌(ひかり)
TTITLE2=銀河鉄道は遙かなり(オリジナル・カラオケ)
TTITLE3=銀河の煌(ひかり)(オリジナル・カラオケ)
EXTD=YEAR: 2003
EXTT0=
EXTT1=
EXTT2=
EXTT3=
PLAYORDER=
